<svg width="16" height="16" viewBox="0 0 16 16" fill="currentColor" xmlns="http://www.w3.org/2000/svg">
<path d="M9.41018 8.00019L14.7102 2.71019C14.8985 2.52188 15.0043 2.26649 15.0043 2.00019C15.0043 1.73388 14.8985 1.47849 14.7102 1.29018C14.5219 1.10188 14.2665 0.996094 14.0002 0.996094C13.7339 0.996094 13.4785 1.10188 13.2902 1.29018L8.00018 6.59019L2.71018 1.29018C2.52188 1.10188 2.26649 0.996094 2.00019 0.996094C1.73388 0.996094 1.47849 1.10188 1.29019 1.29018C1.10188 1.47849 0.996094 1.73388 0.996094 2.00019C0.996094 2.26649 1.10188 2.52188 1.29019 2.71019L6.59018 8.00019L1.29019 13.2902C1.19695 13.3834 1.12299 13.4941 1.07253 13.6159C1.02206 13.7378 0.996094 13.8683 0.996094 14.0002C0.996094 14.132 1.02206 14.2626 1.07253 14.3844C1.12299 14.5063 1.19695 14.6169 1.29019 14.7102C1.38342 14.8034 1.49411 14.8774 1.61593 14.9278C1.73776 14.9783 1.86833 15.0043 2.00019 15.0043C2.13204 15.0043 2.26261 14.9783 2.38444 14.9278C2.50626 14.8774 2.61695 14.8034 2.71018 14.7102L8.00018 9.41018L13.2902 14.7102C13.3834 14.8034 13.4941 14.8774 13.6159 14.9278C13.7378 14.9783 13.8683 15.0043 14.0002 15.0043C14.132 15.0043 14.2626 14.9783 14.3844 14.9278C14.5063 14.8774 14.6169 14.8034 14.7102 14.7102C14.8034 14.6169 14.8774 14.5063 14.9278 14.3844C14.9783 14.2626 15.0043 14.132 15.0043 14.0002C15.0043 13.8683 14.9783 13.7378 14.9278 13.6159C14.8774 13.4941 14.8034 13.3834 14.7102 13.2902L9.41018 8.00019Z"    />
</svg>
